<svg width="121" height="34" viewBox="0 0 121 34" fill="none" xmlns="http://www.w3.org/2000/svg">
<g clip-path="url(#clip0_1_17)">
<path d="M26.011 6.43984C25.9911 6.26368 25.8319 6.18538 25.7125 6.16581C25.5931 6.14623 23.2049 6.12666 23.2049 6.12666C23.2049 6.12666 21.1949 4.20841 20.9959 4.01267C20.7969 3.81693 20.4188 3.87565 20.2595 3.9148C20.2595 3.9148 19.8814 4.03224 19.2446 4.22798C19.1451 3.89522 18.9859 3.48417 18.7669 3.07312C18.0505 1.72251 17.0156 1.01785 15.7419 1.01785C15.6623 1.01785 15.5628 1.01785 15.4832 1.03742C15.4434 0.998276 15.4036 0.959128 15.3638 0.900406C14.8066 0.313187 14.11 0.0391509 13.2742 0.0587249C11.6423 0.0978728 10.0303 1.25274 8.69688 3.32758C7.76151 4.77605 7.06497 6.59643 6.86595 8.00576C4.99523 8.57341 3.68174 8.96489 3.66184 8.98446C2.72648 9.27807 2.68668 9.29764 2.56727 10.1785C2.46776 10.8244 0 29.635 0 29.635L20.7173 33.1583L29.6928 30.966C29.6928 30.966 26.0309 6.59643 26.011 6.43984ZM18.2097 4.54117C17.7321 4.67818 17.1947 4.85435 16.5977 5.03052C16.5778 4.22798 16.4783 3.09269 16.1002 2.11399C17.3539 2.34888 17.951 3.71906 18.2097 4.54117ZM15.523 5.36327C14.4285 5.69603 13.2543 6.04836 12.0602 6.42027C12.3985 5.16753 13.0354 3.9148 13.8115 3.09269C14.11 2.77951 14.5081 2.44675 14.9857 2.25101C15.4434 3.17099 15.523 4.48244 15.523 5.36327ZM13.2941 1.13529C13.6722 1.13529 13.9906 1.21359 14.2692 1.38976C13.8314 1.60507 13.3936 1.93783 12.9956 2.36845C11.9607 3.4646 11.1646 5.14796 10.8462 6.79217C9.85115 7.08578 8.89589 7.37939 8.00033 7.65343C8.59737 5.06966 10.7865 1.21359 13.2941 1.13529Z" fill="#95BF47"/>
<path d="M25.7125 6.1658C25.5931 6.14623 23.2049 6.12665 23.2049 6.12665C23.2049 6.12665 21.1949 4.2084 20.9959 4.01266C20.9163 3.93437 20.8168 3.89522 20.7173 3.89522V33.1583L29.6928 30.966C29.6928 30.966 26.0309 6.616 26.011 6.43984C25.9712 6.26367 25.8319 6.18537 25.7125 6.1658Z" fill="#5E8E3E"/>
<path d="M15.7419 10.707L14.7071 14.5435C14.7071 14.5435 13.5528 14.015 12.1597 14.1128C10.1298 14.2303 10.1099 15.483 10.1298 15.8158C10.2492 17.5383 14.8265 17.9102 15.0852 21.9229C15.2842 25.0938 13.3737 27.247 10.6273 27.4231C7.32368 27.6189 5.51266 25.7202 5.51266 25.7202L6.20921 22.8037C6.20921 22.8037 8.04013 24.1543 9.49293 24.076C10.4482 24.0173 10.7865 23.2539 10.7467 22.7058C10.6074 20.4744 6.86595 20.5918 6.62714 16.9315C6.42813 13.8388 8.49786 10.707 13.0553 10.4134C14.8464 10.2568 15.7419 10.707 15.7419 10.707ZM41.8525 18.8889C40.8176 18.3408 40.2803 17.871 40.2803 17.2251C40.2803 16.403 41.0166 15.8745 42.1908 15.8745C43.5441 15.8745 44.7382 16.4226 44.7382 16.4226L45.6934 13.5648C45.6934 13.5648 44.8178 12.8993 42.2505 12.8993C38.6683 12.8993 36.1806 14.9154 36.1806 17.7536C36.1806 19.3587 37.3349 20.5918 38.8872 21.4727C40.141 22.1773 40.5788 22.6667 40.5788 23.4105C40.5788 24.1739 39.9618 24.7807 38.7877 24.7807C37.0562 24.7807 35.4243 23.8998 35.4243 23.8998L34.4094 26.7576C34.4094 26.7576 35.9219 27.7559 38.4493 27.7559C42.1311 27.7559 44.778 25.9747 44.778 22.7645C44.7979 21.0225 43.4645 19.7893 41.8525 18.8889ZM56.5396 12.8601C54.7286 12.8601 53.2957 13.7018 52.2011 14.9937L52.1414 14.9741L53.7136 6.87047H49.614L45.6337 27.4819H49.7334L51.1066 20.4352C51.6439 17.7732 53.037 16.129 54.3505 16.129C55.266 16.129 55.6242 16.7358 55.6242 17.6166C55.6242 18.1647 55.5645 18.8497 55.4451 19.3978L53.8928 27.4623H57.9924L59.6044 19.1238C59.7836 18.2429 59.903 17.186 59.903 16.5009C59.903 14.2499 58.6691 12.8601 56.5396 12.8601ZM69.177 12.8601C64.2414 12.8601 60.9776 17.2447 60.9776 22.1382C60.9776 25.27 62.9479 27.7755 66.6296 27.7755C71.4656 27.7755 74.7493 23.5084 74.7493 18.4974C74.7294 15.62 72.998 12.8601 69.177 12.8601ZM67.147 24.6828C65.7539 24.6828 65.1569 23.5084 65.1569 22.0599C65.1569 19.7501 66.3709 15.9724 68.5998 15.9724C70.0526 15.9724 70.5303 17.2055 70.5303 18.3995C70.5303 20.8854 69.3163 24.6828 67.147 24.6828ZM85.2174 12.8601C82.4511 12.8601 80.8789 15.2481 80.8789 15.2481H80.8192L81.0581 13.0754H77.436C77.2569 14.5435 76.9385 16.7553 76.6002 18.4191L73.7543 33.1779H77.854L78.9883 27.2078H79.0679C79.0679 27.2078 79.9038 27.7363 81.476 27.7363C86.2921 27.7363 89.4365 22.882 89.4365 17.9689C89.4564 15.2873 88.2225 12.8601 85.2174 12.8601ZM81.2969 24.7415C80.2222 24.7415 79.6053 24.1543 79.6053 24.1543L80.2819 20.3765C80.7595 17.871 82.0929 16.1877 83.5258 16.1877C84.7796 16.1877 85.1577 17.323 85.1577 18.4191C85.1577 21.0225 83.5855 24.7415 81.2969 24.7415ZM95.3074 7.08578C93.9939 7.08578 92.959 8.10363 92.959 9.43466C92.959 10.6287 93.7352 11.4508 94.8895 11.4508H94.9492C96.2229 11.4508 97.3373 10.6091 97.3572 9.1019C97.3572 7.92746 96.5612 7.08578 95.3074 7.08578ZM89.5758 27.4819H93.6755L96.4617 13.1929H92.3222L89.5758 27.4819ZM106.89 13.1537H104.044L104.183 12.4882C104.422 11.118 105.258 9.88486 106.611 9.88486C107.348 9.88486 107.925 10.0806 107.925 10.0806L108.721 6.92919C108.721 6.92919 108.004 6.57686 106.492 6.57686C105.039 6.57686 103.586 6.98791 102.472 7.92746C101.079 9.1019 100.422 10.7853 100.084 12.4882L99.9643 13.1537H98.0538L97.4567 16.1877H99.3673L97.198 27.4819H101.298L103.467 16.1877H106.293L106.89 13.1537ZM116.761 13.1929C116.761 13.1929 114.194 19.5544 113.039 23.019H112.98C112.9 21.9033 111.965 13.1929 111.965 13.1929H107.666L110.134 26.327C110.194 26.6206 110.154 26.7968 110.054 26.9925C109.577 27.8929 108.781 28.7738 107.825 29.4197C107.049 29.9678 106.193 30.3201 105.497 30.555L106.631 33.9804C107.467 33.8043 109.179 33.1387 110.651 31.7881C112.522 30.0656 114.253 27.4036 116.025 23.7824L121.04 13.1929H116.761Z" fill="white"/>
</g>
<defs>
<clipPath id="clip0_1_17">
<rect width="121" height="34" fill="white"/>
</clipPath>
</defs>
</svg>
